<svg width="512" height="512" id="hexatar-preview" version="1.1" xmlns="http://www.w3.org/2000/svg" xmlns:xlink="http://www.w3.org/1999/xlink" x="0px" y="0px" viewBox="0 0 512 512" style="enable-background:new 0 0 512 512;" xml:space="preserve">
    <g id="hexatar-background"><g class="hexatar-base">
		<rect class="col-obj" x="-0.003" y="0.002" style="fill: rgb(146, 212, 232);" width="512" height="512"></rect>
		<path class="light-obj" style="opacity: 0.8; fill: rgb(188, 229, 241);" d="M253.725,0.002H89.221l82.252,82.252L253.725,0.002z M258.27,0.002 l82.252,82.252l82.252-82.252H258.27z M85.957,508.87l-85.96-82.521v85.653h251.877l4.124-4.124l-84.525-84.525L85.957,508.87z M511.997,422.778V253.729l-0.925-0.925l-84.525,84.524L511.997,422.778z M260.121,512.002h251.876v-85.654l-85.96,82.521 l-85.515-85.515l-84.525,84.525L260.121,512.002z M-0.003,253.73v169.049l85.45-85.451L0.923,252.804L-0.003,253.73z M169.972,252.804l-84.525,84.524l86.025,86.025l84.525-84.525L169.972,252.804z M255.998,338.829l84.525,84.525l86.025-86.025 l-84.524-84.524L255.998,338.829z M511.997,0.002h-89.223l87.782,84.269l-84.008,84.008l84.525,84.525l0.925-0.925V0.002z M426.548,168.279l-86.025-86.025l-84.525,84.525l86.025,86.025L426.548,168.279z M1.439,84.271L89.221,0.002H-0.003v251.876 l0.926,0.926l84.525-84.525L1.439,84.271z M169.972,252.804l86.025-86.025l-84.525-84.525l-86.025,86.025L169.972,252.804z"></path>
	</g></g>
	<g id="hexatar-hair-rear"></g>
	<g id="hexatar-bodies">
		<g id="hexatar-body">
			<polygon class="col-obj" style="fill: rgb(247, 207, 179);" points="380.515,465 301,451 301,334 211,334 211,451 131.636,465 94.115,512   418.035,512 "></polygon>
			<polygon class="shadow-obj" style="fill: rgb(242, 178, 133);" points="380.541,465 301,451 301,334 256,334 256,512 418.062,512 "></polygon>
			<polygon id="hexatar-neck-control" class="shadow-obj-2x" style="opacity: 0.5; fill: rgb(237, 149, 87);" points="301.054,387.482 255.998,427.693 210.942,384.615  210.942,333.485 301.054,333.485 "></polygon>
		</g>
		<g id="hexatar-clothes"><g class="hexatar-base">
		<path class="shadow-obj-2x" style="fill: rgb(102, 153, 51);" d="M346.448,403.978h-45.425v39.381h59.934v-24.872 C360.957,410.474,354.461,403.978,346.448,403.978z M151.031,418.935v24.424h59.94l0.001-39.381l-44.985,0.001 C157.727,403.979,151.031,410.675,151.031,418.935z"></path>
		<polygon class="static-obj" style="fill:#666666;" points="383.147,464.994 315.28,435.317 256,450.573 196.75,435.317  129.466,462.994 92.159,511.994 258.323,511.994 420.454,511.994"></polygon>
		<polygon class="white-obj" style="fill:#FFFFFF;" points="187.185,456.112 326.253,456.112 326.285,443.359 301.023,413.648  301.023,428.094 210.971,427.889 211.014,413.648 187.426,443.359"></polygon>
		<path class="col-obj" style="fill: rgb(153, 204, 102);" d="M147.403,455.083l-35.16,9.912l-37.084,47h131.175l-14.054-27.832l14.054-13.916 c0-30.157-25.145-52.086-55.302-52.086L151,432.343L147.403,455.083z M399.755,464.994l-35.376-9.595L361,432.343l0-14.182 c-30.157,0-54.605,21.929-54.605,52.086l14.054,13.916l-14.054,27.832h130.444L399.755,464.994z"></path>
		<path class="shadow-obj" style="opacity: 0.4; fill: rgb(128, 191, 64);" d="M399.532,464.994L388.811,512l48.028-0.006L399.532,464.994z M75.159,511.994L123.836,512l-11.37-47.006L75.159,511.994z M361,418.16c-30.157,0-54.605,21.929-54.605,52.086l14.054,13.916 c0,0,16.598-17.82,43.93-28.764L361,432.343L361,418.16z"></path>
	</g></g>
	</g>
	<g id="hexatar-faces">
		<g id="hexatar-ears"><g class="hexatar-base">
		<g class="hexatar-ears-right"> 	<polygon class="col-obj" style="fill: rgb(247, 207, 179);" points="172.639,176.555 172.639,243.147 154.47,251.417 138.743,242.769  115.596,187.997 141.602,155.736"></polygon> 	<polygon class="shadow-obj" style="fill: rgb(242, 178, 133);" points="143.639,169.144 127.136,189.615 146.602,235.678 154.893,240.237  172.639,231.856 172.639,188.018"></polygon>
		</g>
		<g class="hexatar-ears-left"> 	<polygon class="shadow-obj" style="fill: rgb(242, 178, 133);" points="339.621,243.147 339.621,176.555 369.839,155.736 395.845,187.997  373.552,240.749 356.971,251.417"></polygon> 	<polygon class="shadow-obj-2x" style="fill: rgb(237, 149, 87);" points="367.874,169.233 339.621,188.383 339.621,232.942 356.246,239.992  365.543,234.011 384.305,189.615"></polygon>
		</g>
	</g></g>
		<g id="hexatar-face"><g class="hexatar-base">
		<path class="col-obj" style="fill: rgb(247, 207, 179);" d="M256.005,7.17l-102.4,64.185l0,215.354c0,30.805,15.891,59.432,42.035,75.724 l29.615,18.455c18.815,11.725,42.668,11.701,61.46-0.062l29.805-18.657c26.058-16.311,41.883-44.887,41.883-75.629l0-215.185 L256.005,7.17z"></path>
		<path class="shadow-obj" style="fill: rgb(242, 178, 133);" d="M286.716,380.827L286.716,380.827l29.806-18.657 c26.058-16.311,41.883-44.887,41.883-75.629V71.355L256.005,7.17l-0.001,382.495C266.666,389.652,277.323,386.706,286.716,380.827 z"></path>
	</g></g>
		<g id="hexatar-mouth"><g class="hexatar-base">
		<polygon class="col-obj" style="fill: rgb(223, 144, 129);" points="220.382,310.439 292.295,310.439 275.79,322.284 236.887,322.284"></polygon>
		<polygon class="shadow-obj" style="fill: rgb(213, 108, 88);" points="256.219,303.468 245.61,297.601 211.196,310.487 301.481,310.487  266.729,297.491"></polygon>
	</g></g>
		<g id="hexatar-beard"></g>
		<g id="hexatar-mustache"></g>
		<g id="hexatar-nose" transform="matrix(0.8873,0,0,0.8873,28.8305,46.1701)"><g class="hexatar-base">
		<polygon class="shadow-obj" style="fill: rgb(242, 178, 133);" points="271.118,238.727 261.69,180.775 250.312,180.775 240.883,238.727  236.032,238.727 231.425,252.463 237.569,257.069 240.677,256.214 249.857,266.281 256.001,266.281 262.145,266.281  271.325,256.214 274.433,257.069 280.577,252.463 275.969,238.727"></polygon>
		<polygon class="shadow-obj-2x" style="fill: rgb(237, 149, 87);" points="271.118,238.727 261.69,180.775 256.001,180.775 256.001,266.281  262.145,266.281 271.325,256.214 274.433,257.069 280.577,252.463 275.969,238.727"></polygon>
	</g></g>
		<g id="hexatar-eyeGroup">
			<g id="hexatar-eye"><g class="hexatar-base">
		<g class="hexatar-eye-right">
			<path class="white-obj" style="fill:#FFFFFF;" d="M229.552,197.4c0,0-1.953-5.23-7.334-10.607 c-12.432-2.113-22.967,0.451-22.967,0.451s-9.34,7.593-11.09,9.468c9.066,6.368,29.886,10.832,38.979,2.044 C228.912,200.525,230.075,198.544,229.552,197.4z"></path>
			<circle class="shadow-obj" style="opacity: 0.3; fill: rgb(0, 0, 0);" cx="210.821" cy="193.739" r="8.122"></circle>
			<circle class="col-obj" style="fill: rgb(17, 17, 17);" cx="210.821" cy="193.739" r="4.204"></circle>
			<circle class="white-obj" style="fill:#FFFFFF;" cx="207.608" cy="195.977" r="2.614"></circle>
			<path class="hair-col" style="fill: rgb(197, 74, 41);" d="M229.959,188.794l-7.745-3.097c-8.687-1.549-16.499-1.078-23.57,1.28 c-2.29,1.482-10.304,9.63-11.247,10.842c1.751-1.481,11.179-9.428,11.651-9.765c3.3-0.808,10.775-1.077,22.425-0.876l7.341,9.361 c-0.876-3.434-2.357-6.33-4.445-8.822L229.959,188.794z"></path>
			<path class="skin-col" style="fill: rgb(237, 149, 87);" d="M191.438,198.896c9.159,4.647,21.398,8.818,31.989,2.492 C213.555,205.421,201.943,203.139,191.438,198.896z"></path>
		</g>
		<g class="hexatar-eye-left">
			<path class="white-obj" style="fill:#FFFFFF;" d="M283.501,197.4c0,0,1.953-5.23,7.334-10.607 c12.432-2.113,22.967,0.451,22.967,0.451s9.34,7.593,11.09,9.468c-9.066,6.368-29.886,10.832-38.979,2.044 C284.141,200.525,282.978,198.544,283.501,197.4z"></path>
			<circle class="shadow-obj" style="opacity: 0.3; fill: rgb(0, 0, 0);" cx="302.232" cy="193.739" r="8.122"></circle>
			<circle class="col-obj" style="fill: rgb(17, 17, 17);" cx="302.232" cy="193.739" r="4.204"></circle>
			<circle class="white-obj" style="fill:#FFFFFF;" cx="305.445" cy="195.977" r="2.614"></circle>
			<path class="hair-col-2x" style="fill: rgb(155, 58, 32);" d="M288.684,187.717c-2.088,2.492-3.569,5.387-4.445,8.822l7.341-9.361 c11.651-0.201,19.126,0.068,22.425,0.876c0.472,0.337,9.9,8.284,11.651,9.765c-0.943-1.212-8.956-9.36-11.247-10.842 c-7.071-2.357-14.883-2.829-23.57-1.28l-7.745,3.097L288.684,187.717z"></path>
			<path class="skin-col-2x" style="fill: rgb(232, 120, 41);" d="M289.626,201.387c10.591,6.326,22.83,2.155,31.989-2.492 C311.11,203.139,299.498,205.421,289.626,201.387z"></path>
		</g>
	</g></g>
			<g id="hexatar-eyebrows"><g class="hexatar-base">
		<g class="hexatar-eyebrows-right"> 	<polygon class="col-obj" style="fill: rgb(197, 74, 41);" points="178.155,177.187 190.026,171.684 231.935,175.149 233.828,165.955  191.416,162.211"></polygon>
		</g>
		<g class="hexatar-eyebrows-left"> 	<polygon class="col-obj" style="fill: rgb(197, 74, 41);" points="334.608,177.187 322.736,171.684 280.828,175.149 278.935,165.955  321.347,162.211"></polygon> 	<polygon class="shadow-obj" style="opacity: 0.4; fill: rgb(155, 58, 32);" points="334.608,177.187 322.736,171.684 280.828,175.149 278.935,165.955  321.347,162.211"></polygon>
		</g>
	</g></g>
		</g>
		<g id="hexatar-hair-front"><g class="element-front">
			<polygon class="col-obj" style="fill: rgb(197, 74, 41);" points="256.211,6.901 153.602,70.984 153.602,175.3 172.582,175.3  172.582,80.4 309.162,106.291 339.49,73.22 339.49,175.3 358.403,175.3 358.403,70.984"></polygon>
			<polygon class="col-obj hair-ext" style="fill: rgb(197, 74, 41); display: block;" points="139.876,39.763 154.468,72.834 256.211,6.901"></polygon>
			<polygon class="shadow-obj" style="opacity: 0.4; fill: rgb(155, 58, 32);" points="256.211,6.901 256.211,96.253 309.162,106.291 339.49,73.22  339.49,175.3 358.403,175.3 358.403,70.984"></polygon>
		</g></g>
		<g id="hexatar-hat"></g>
		<g id="hexatar-eyeglasses"></g>
	</g>
	</svg>
